<?xml version="1.0" encoding="UTF-8"?>
<svg id="Camada_2" data-name="Camada 2" xmlns="http://www.w3.org/2000/svg" viewBox="0 0 121.52 400.83">
  <defs>
    <style>
      .cls-1 {
        fill: #f6866e;
      }

      .cls-1, .cls-2, .cls-3, .cls-4, .cls-5, .cls-6, .cls-7, .cls-8 {
        stroke-width: 0px;
      }

      .cls-2 {
        fill: #44aec3;
      }

      .cls-3 {
        fill: #fff;
      }

      .cls-4 {
        fill: #21354e;
      }

      .cls-5 {
        fill: #f47560;
      }

      .cls-6 {
        fill: #a4d7e8;
      }

      .cls-7 {
        fill: #3e6896;
      }

      .cls-8 {
        fill: #f2f2f2;
      }
    </style>
  </defs>
  <g id="OBJECTS">
    <g>
      <g>
        <g>
          <path class="cls-7" d="M22.61,390.87c-.65,1.09-1.31,2.21-1.67,3.46-.36,1.25-.41,2.66.14,3.82.95,2.04,3.33,2.69,5.42,2.67,5.39-.04,10.39-2.95,15.07-5.88,1.85-1.16,3.7-2.34,5.53-3.53,1.91-1.24,3.82-2.51,5.52-4.09.88-.82,1.72-1.77,2.09-2.97.31-1.01.25-2.1.18-3.17-.25-3.81-.61-7.62-1.08-11.41-.1-.77-7.77-.81-8.59-.8-2.27.03-5.19-.09-7.31.96-1.79.9-3.2,3.24-4.44,4.82-1.86,2.37-3.63,4.84-5.33,7.36-1.92,2.85-3.74,5.78-5.52,8.75Z"/>
          <path class="cls-7" d="M102.23,390.87c.65,1.09,1.31,2.21,1.67,3.46.36,1.25.41,2.66-.14,3.82-.95,2.04-3.33,2.69-5.42,2.67-5.39-.04-10.39-2.95-15.07-5.88-1.85-1.16-3.7-2.34-5.53-3.53-1.91-1.24-3.82-2.51-5.52-4.09-.88-.82-1.72-1.77-2.09-2.97-.31-1.01-.25-2.1-.18-3.17.25-3.81.61-7.62,1.08-11.41.1-.77,7.77-.81,8.59-.8,2.27.03,5.19-.09,7.31.96,1.79.9,3.2,3.24,4.44,4.82,1.86,2.37,3.63,4.84,5.33,7.36,1.92,2.85,3.74,5.78,5.52,8.75Z"/>
          <path class="cls-4" d="M97.79,203.9l-2.51,172.71s-12.64,4.5-27.46,0c0,0,.45-87.42-3.23-134.71h-4.11c-3.68,47.28-3.23,134.71-3.23,134.71-14.82,4.5-27.46,0-27.46,0l-2.1-172.71h70.1Z"/>
        </g>
        <g>
          <path class="cls-3" d="M27.68,103.19c4.74-1.45,9.83-2.63,15.1-3.51v196.52c-18.33-.45-31.23-1.42-31.23-1.42l2.26-102.25c-16.3-1.3-13.66-15.42-13.66-15.42l4.25-38.93c1.16-10.9,3.64-27.43,15.35-32.18,2.57-1.04,5.22-1.98,7.93-2.81Z"/>
          <path class="cls-3" d="M107.14,200.85l4.46,93.25c-10.61,1.15-21.85,1.79-32.82,2.09l-1.3-197.31c7.46.99,14.65,2.83,21.1,5.68,13.43,5.94,16.23,30.1,18.54,42.67,1.95,10.6,3.44,21.35,4.3,32.1,1.43,19.24-14.28,21.51-14.28,21.51Z"/>
          <path class="cls-8" d="M28.61,121.66c-2.12,7.15-2.68,15.03-3.49,22.44-.87,7.9-1.75,15.87-1.92,23.82-.03,1.39,2,1.34,2.13,0,.75-7.69,1.14-15.42,1.91-23.12.76-7.6,2.25-15.37,2.31-23.01,0-.55-.79-.65-.95-.13Z"/>
          <path class="cls-8" d="M94.27,146.91c-.67-4.05-1.49-8.07-2.35-12.08-.95-4.38-1.67-9.09-3.39-13.24-.23-.54-1.17-.56-1.13.15.47,7.88,3.21,15.89,4.59,23.67,1.46,8.29,2.5,16.71,2.47,25.14-5.2.04-10.41.43-15.6.68-1.47.07-1.48,2.37,0,2.3,5.53-.27,11.12-.38,16.63-.93.55-.05,1.03-.43,1.02-1.02-.12-8.29-.87-16.49-2.23-24.67Z"/>
        </g>
        <path class="cls-2" d="M77.47,214.9h-34.68v-115.11c1.26-.21,2.52-.4,3.8-.57,8.64-1.17,17.69-1.48,26.45-.65,1.25.11,2.5.26,3.75.42l.68,115.9Z"/>
        <g>
          <path class="cls-1" d="M40.19,165.99c-1.37-1.02-2.63-2.16-3.9-3.63-3.31-3.81-6.62-7.62-9.93-11.43-.54-.62-1.11-1.26-1.89-1.53-.69-.23-1.44-.14-2.16,0-3.44.64-6.74,2.02-9.62,4.01-.78.54-.43,1.76.52,1.8,2.23.11,4.47-.07,6.65-.52-2.1.78-4.32,1.66-6.05,3.02-.96.76-.27,2.29.93,2.06,1.85-.36,3.68-.78,5.5-1.26-1.72.98-3.52,2.07-4.82,3.52-.78.87.06,2.22,1.19,1.92,2.06-.55,4.1-1.14,6.13-1.79-2.14,1.21-4.41,2.56-5.8,4.52-.48.68.04,1.6.87,1.52,2.42-.23,4.76-1.22,6.6-2.81-.51,3.03,1.61,6.27,4.58,7.02,1.07.27,2.21.26,3.21.72.59.28,1.1.71,1.59,1.14,3.38,2.93,6.76,5.85,10.14,8.78,1.99-3.83,3.96-7.67,5.99-11.48-.19.34-5.44-2.84-5.84-3.08-1.43-.84-2.7-1.63-3.89-2.52Z"/>
          <g>
            <path class="cls-1" d="M92.73,164.52c1.08-.22,2.19-.43,3.27-.19.85.19,1.65.66,2.42,1.14,3.55,2.19,7,4.63,10.32,7.3.48.38.98.87,1.36,1.42.62.89-.18,2.21-1.08,1.8l-6.61-3.02c1.91,1.38,3.57,3.26,4.84,5.49.19.34.39.75.28,1.15-.2.73-1.07.58-1.65.28-2.51-1.31-5.03-2.63-7.54-3.94,1.53,1.48,2.93,3.16,4.17,5,.54.8,0,2.01-.85,1.9-2.88-.38-5.61-2.46-8.1-4.48,1.31,1.36,2.39,3.05,3.16,4.92.34.83-.25,1.8-1,1.65-2.36-.45-4.43-3.11-6.49-4.97-.3-.27-.63-.54-1-.61-.5-.09-.98.19-1.44.44-2.06,1.14-4.67,1.9-6.42.15-.54-.54-.95-1.28-1.58-1.62-.46-.25-.98-.25-1.48-.25-1.85,0-4.42,0-6.27.01-.15-3.47.18-9.71.33-13.15,2.93-.51,17.21.41,21.36-.42Z"/>
            <polygon class="cls-3" points="20.72 167.91 81.79 162.94 81.79 194.9 30.62 194.19 20.72 167.91"/>
          </g>
        </g>
        <path class="cls-1" d="M73.5,98.47l-14.77,28.97-11.8-28.33c8.68-1.17,17.77-1.48,26.57-.65Z"/>
      </g>
      <g>
        <g>
          <circle class="cls-6" cx="35.79" cy="126.9" r="9"/>
          <path class="cls-4" d="M41.5,127.19c0,2.97-2.41,5.38-5.38,5.38s-5.38-2.41-5.38-5.38,2.41-5.38,5.38-5.38,5.38,2.41,5.38,5.38Z"/>
        </g>
        <g>
          <path class="cls-4" d="M96.27,129.5c-2.14-5.53-7.04-10.66-13.29-10.71-1.4-7.05-3.48-14.54-8.59-19.8-4.87-5.01-12.23-7.16-19.07-6.06-6.79,1.1-12.78,5.56-16.24,11.45-4.04,6.89-4.25,15.55-2.97,23.24.13.77,1.23.52,1.29-.17.55-7.16-.2-14.59,3.38-21.13,3.09-5.64,8.63-9.93,15.04-10.92,6.5-1,13.32,1.38,17.56,6.45,4.09,4.88,5.55,11.18,6.96,17.24-5.34,1.24-9.04,6.25-10.53,11.37-1.04,3.6-1.25,7.4-1.36,11.12-.12,4.25-.22,8.62.61,12.81.06.32.23.52.45.63.31.3.77.39,1.23.33,1.52-.21,2.95-.67,4.33-1.32.67-.31.23-1.16-.34-1.24-1.2-.15-2.39-.16-3.58-.02.32-6.08-.28-12.21.66-18.27.88-5.63,4.18-12.88,10.88-12.97,6.5-.09,10.47,6.18,11.93,11.75,1.57,6.02,1.46,12.28,1.89,18.44-.32.06-.63.13-.94.19-.56.11-1.19.28-1.65.62-.64.47-.56,1.39.22,1.67.55.2,1.19.18,1.76.12.6-.07,1.27-.07,1.85-.26.29-.1.49-.27.64-.47.2-.18.35-.44.38-.79.7-7.35.2-16.33-2.49-23.3Z"/>
          <path class="cls-6" d="M74.36,156.94h0c-.93,0-1.7-.76-1.57-1.7v-2.83c-.13-.93.64-1.7,1.57-1.7h0c.93,0,1.7.76,1.43,1.7v2.83c.27.93-.49,1.7-1.43,1.7Z"/>
          <path class="cls-6" d="M93.55,156.94h0c-.93,0-1.7-.76-1.76-1.7v-2.83c.06-.93.83-1.7,1.76-1.7h0c.93,0,1.7.76,1.24,1.7v2.83c.46.93-.3,1.7-1.24,1.7Z"/>
        </g>
      </g>
      <g>
        <path class="cls-4" d="M98.33,27.66c-2.38-10.39-11.54-18.87-22.08-20.43,2.4-1.38,3.45-4.72,2.26-7.23-7.16,2.42-12.37,7.02-15.87,12.78-.55-2.34-1.53-4.16-4.16-5.76-4.77-2.89-10.72-3.95-16.15-2.67-.42.1-.85.22-1.15.52-.64.64-.36,1.81.34,2.39.7.58,1.65.73,2.54.86-10.94,4.56-19.11,15.18-20.71,26.92,1.18,0,2.37-.02,3.55-.03-2.81,3.99-2.2,9.48-.48,14.04,2.46,6.53,6.98,12.26,12.75,16.19,3.29,2.24,7.07,3.92,11.04,4.11,3.97.2,8.14-1.26,10.63-4.36,1.38-1.72,2.15-3.79,2.63-5.95,3.25,5.4,8.5,10.49,14.63,9.58,5.92-.88,9.51-6.82,12.25-12.13,3.56-6.89,7.17-15.05,3.88-22.06,1.51.65,3.33-.43,4-1.94.67-1.5.46-3.24.1-4.84Z"/>
        <g>
          <g>
            <path class="cls-1" d="M63.56,107.9h-7.56c-3.51-.55-6.27-3.54-6.02-7.04l.44-6.19,1.11-18.93,17.25-2.6,1,16.33v11.86c-.06,3.4-2.83,6.15-6.22,6.57Z"/>
            <path class="cls-5" d="M69.6,89.47c-4.45,2.37-9.31,3.97-14.29,4.71-1.21.2-3.05.46-4.94.48l1.11-18.93,18.3-2.6-.18,16.33Z"/>
          </g>
          <g>
            <path class="cls-5" d="M85.07,55.45c1.15-.81,2.5-1.42,3.9-1.36,1.5.06,2.92.9,3.84,2.09.92,1.19,1.36,2.7,1.42,4.21.16,4.16-2.68,8.1-6.43,9.92-1.39.67-2.94,1.1-4.47.9s-3.01-1.12-3.61-2.54c-.45-1.07-.37-2.28-.23-3.43.48-3.8,2.38-7.53,5.57-9.78Z"/>
            <path class="cls-5" d="M36.86,53.42c-1.07-.9-2.37-1.62-3.77-1.69-1.5-.07-2.99.65-4,1.76s-1.58,2.58-1.77,4.07c-.51,4.14,1.98,8.3,5.57,10.42,1.32.79,2.84,1.34,4.37,1.27,1.54-.07,3.1-.86,3.81-2.22.54-1.03.56-2.24.51-3.4-.16-3.83-1.74-7.71-4.73-10.22Z"/>
            <path class="cls-1" d="M36.28,33.1s.91,36.04.91,36.1c.53,20.76,33.57,23.56,43.94,9.07,1.23-1.72,2.67-4.15,2.92-6.3,0,0,4.13-36.78,4.13-36.78,0,0-6.72-17.51-27.91-16.79,0,0-15.8,2.57-23.99,14.69Z"/>
          </g>
        </g>
        <path class="cls-4" d="M30.64,43.18c-.07,1.61.26,3.51,1.7,4.24,1.75.89,3.74-.56,5.17-1.9,2.9-2.74,5.8-5.47,8.7-8.21-1.44.89-2.09,2.86-1.48,4.44.61,1.58,2.42,2.59,4.08,2.29,1.34-.25,2.43-1.2,3.42-2.13,4.1-3.82,8-7.85,11.69-12.06.12,3.08.69,6.15,1.71,9.07.35,1.01.79,2.05,1.63,2.72,1.76,1.39,4.53.43,5.84-1.39s1.53-4.17,1.72-6.4c.58,2.96,1.72,5.92,3.89,8.02,2.17,2.1,5.51,3.17,8.31,2.06,3.96-1.57,5.34-6.63,4.77-10.85-1.14-8.35-7.89-15.3-15.88-18-7.98-2.69-16.91-1.55-24.66,1.76-10.5,4.49-20.11,14.33-20.61,26.36Z"/>
        <g>
          <path class="cls-4" d="M48.63,48.62c-1.34-.17-2.7-.16-4.05-.06-1.26.1-2.31.22-3.08,1.29-.33.46-.14,1.1.19,1.48.79.9,2.02.87,3.14.88,1.27.02,2.53.05,3.79-.05,2.32-.18,2.24-3.27,0-3.54Z"/>
          <path class="cls-4" d="M77.9,48.57c-2.06-.09-4.66-.36-6.58.51-1.26.57-.64,2.18.34,2.6,1.77.74,4.37.34,6.24.2,2.11-.15,2.14-3.21,0-3.31Z"/>
          <path class="cls-4" d="M48.67,59.35c-.03-.52-.18-1.03-.43-1.55-.11-.27-.24-.53-.39-.77-.69-1.09-2.56-1.31-3.2,0-.91,1.88-.82,4.11.57,5.73.71.82,1.76.67,2.45.07.3-.23.56-.55.71-.95.31-.8.39-1.68.28-2.53Z"/>
          <path class="cls-4" d="M77.08,59.35c-.03-.52-.18-1.03-.43-1.55-.11-.27-.24-.53-.39-.77-.69-1.09-2.56-1.31-3.2,0-.91,1.88-.82,4.11.57,5.73.71.82,1.76.67,2.45.07.3-.23.56-.55.71-.95.31-.8.39-1.68.28-2.53Z"/>
          <path class="cls-5" d="M63.21,53.68c-.66-1.18-2.71-1.33-3.33,0-.88,1.88-.89,4.04-1,6.08-.1,1.89-.18,4.81,2.51,4.84,2.52.03,2.77-2.67,2.82-4.54.06-2.1.06-4.51-1-6.38Z"/>
          <path class="cls-3" d="M53.4,68.15s9.23-2.13,15.62,0c0,0-1.78,6.75-7.99,6.57,0,0-7.28.18-7.63-6.57Z"/>
        </g>
      </g>
    </g>
  </g>
</svg>