<?xml version="1.0" encoding="UTF-8"?>
<svg id="Camada_2" data-name="Camada 2" xmlns="http://www.w3.org/2000/svg" viewBox="0 0 141.88 395.8">
  <defs>
    <style>
      .cls-1 {
        fill: #f6866e;
      }

      .cls-1, .cls-2, .cls-3, .cls-4, .cls-5, .cls-6, .cls-7, .cls-8, .cls-9 {
        stroke-width: 0px;
      }

      .cls-2 {
        fill: #e6e6e6;
      }

      .cls-3 {
        fill: #44aec3;
      }

      .cls-4 {
        fill: #fff;
      }

      .cls-5 {
        fill: #21354e;
      }

      .cls-6 {
        fill: #f47560;
      }

      .cls-7 {
        fill: #a4d7e8;
      }

      .cls-8 {
        fill: #3e6896;
      }

      .cls-9 {
        fill: #f2f2f2;
      }
    </style>
  </defs>
  <g id="OBJECTS">
    <g>
      <g>
        <path class="cls-7" d="M103.56,232.33c-14.83.99-34.31.95-47.5.53l.28-141.06c1.26-.23,2.49-.45,3.69-.64,1.3-.21,2.55-.4,3.75-.57.25-.04.5-.07.74-.11,2.73-.37,5.17-.65,7.19-.85.24-.02.48-.05.7-.07.35-.03.7-.07,1.02-.09.1,0,.19-.02.28-.03.27-.02.53-.05.78-.07.16-.01.33-.03.48-.04.31-.03.59-.05.85-.07,1.33-.09,2.07-.12,2.07-.12,1.51.03,3.03.11,4.56.22.28.03.56.05.84.07,1.08.09,2.17.21,3.25.35.67.09,1.35.18,2.02.28.11.01.21.03.32.05.62.09,1.26.19,1.88.3,1.45.24,2.9.52,4.32.81.01,0,.04,0,.05.01.53.1,1.04.22,1.57.33.53.12,1.07.24,1.6.36l5.27,140.4Z"/>
        <path class="cls-1" d="M94.96,91.39l-17.51,33.81-17.55-33.88c10.38-1.83,17.85-2.17,17.85-2.17,5.72.11,11.59.99,17.2,2.24Z"/>
      </g>
      <g>
        <path class="cls-5" d="M38.2,385.84c-.65,1.09-1.31,2.21-1.67,3.46s-.41,2.66.14,3.82c.95,2.04,3.33,2.69,5.42,2.67,5.39-.04,10.39-2.95,15.07-5.88,1.85-1.16,3.7-2.34,5.53-3.53,1.91-1.24,3.82-2.51,5.52-4.09.88-.82,1.72-1.77,2.09-2.97.31-1.01.25-2.1.18-3.17-.25-3.81-.61-7.62-1.08-11.41-.1-.77-7.77-.81-8.59-.8-2.27.03-5.19-.09-7.31.96-1.79.9-3.2,3.24-4.44,4.82-1.86,2.37-3.63,4.84-5.33,7.36-1.92,2.85-3.74,5.78-5.52,8.75Z"/>
        <path class="cls-5" d="M117.82,385.84c.65,1.09,1.31,2.21,1.67,3.46s.41,2.66-.14,3.82c-.95,2.04-3.33,2.69-5.42,2.67-5.39-.04-10.39-2.95-15.07-5.88-1.85-1.16-3.7-2.34-5.53-3.53-1.91-1.24-3.82-2.51-5.52-4.09-.88-.82-1.72-1.77-2.09-2.97-.31-1.01-.25-2.1-.18-3.17.25-3.81.61-7.62,1.08-11.41.1-.77,7.77-.81,8.59-.8,2.27.03,5.19-.09,7.31.96,1.79.9,3.2,3.24,4.44,4.82,1.86,2.37,3.63,4.84,5.33,7.36,1.92,2.85,3.74,5.78,5.52,8.75Z"/>
        <path class="cls-8" d="M113.06,199.16l-2.51,172.71s-12.64,4.5-27.46,0c0,0,.45-87.42-3.23-134.71h-4.11c-3.68,47.29-3.23,134.71-3.23,134.71-14.82,4.5-27.46,0-27.46,0l-2.1-172.71h70.1Z"/>
      </g>
      <g>
        <path class="cls-5" d="M44.55,33.25c-.42,7.23.39,14.88,4.45,20.88.38.56.8,1.12,1.4,1.43,1.21.62,2.76,0,3.59-1.07.84-1.07,1.12-2.46,1.33-3.8.95-6.01.92-12.16.07-18.18-.44-3.1-1.93-7.89-5.94-7.75-3.87.13-4.74,5.6-4.91,8.5Z"/>
        <g>
          <g>
            <path class="cls-1" d="M80.71,101.15l-7.56.14c-3.51.06-6.35-2.85-6.2-6.36l.27-6.2.6-18.95,18.23-3.09.26,16.33.37,11.85c.11,3.39-2.58,6.22-5.98,6.28Z"/>
            <path class="cls-6" d="M86.31,83.01c-4.39,2.49-9.19,4.22-14.16,5.1-1.21.24-3.04.54-4.92.61l.6-18.95,18.23-3.09.26,16.33Z"/>
          </g>
          <g>
            <path class="cls-6" d="M101.12,48.59c1.12-.84,2.46-1.48,3.86-1.47,1.5.02,2.94.82,3.89,1.98s1.43,2.67,1.53,4.17c.27,4.16-2.46,8.17-6.16,10.09-1.37.71-2.91,1.18-4.44,1.02s-3.04-1.04-3.68-2.44c-.48-1.05-.43-2.27-.32-3.42.38-3.81,2.18-7.6,5.31-9.93Z"/>
            <path class="cls-6" d="M52.87,47.86c-1.1-.87-2.42-1.56-3.82-1.58-1.5-.03-2.97.73-3.95,1.86-.98,1.14-1.51,2.62-1.66,4.12-.39,4.15,2.21,8.24,5.85,10.27,1.35.75,2.87,1.26,4.41,1.15,1.54-.11,3.07-.94,3.75-2.33.51-1.04.5-2.25.42-3.41-.27-3.82-1.95-7.66-5-10.08Z"/>
            <path class="cls-1" d="M51.74,27.56s1.89,36,1.89,36.06c1.09,20.74,34.19,22.64,44.17,7.88,1.19-1.75,2.56-4.22,2.74-6.37,0,0,3.13-36.87,3.13-36.87,0,0-7.19-17.32-28.35-16.03,0,0-15.73,3-23.59,15.33Z"/>
          </g>
        </g>
        <g>
          <path class="cls-5" d="M64.51,42.75c-1.34-.13-2.71-.09-4.05.05-1.25.13-2.3.28-3.04,1.37-.32.47-.11,1.1.23,1.47.81.88,2.04.82,3.16.8,1.26-.02,2.53-.02,3.79-.15,2.31-.24,2.15-3.33-.1-3.54Z"/>
          <path class="cls-5" d="M93.77,41.91c-2.06-.04-4.67-.23-6.56.69-1.24.6-.58,2.2.41,2.59,1.79.69,4.38.22,6.24.03,2.11-.21,2.06-3.27-.09-3.31Z"/>
          <path class="cls-5" d="M64.84,53.47c-.05-.51-.21-1.03-.47-1.53-.12-.26-.26-.52-.42-.76-.72-1.08-2.6-1.24-3.19.09-.85,1.9-.71,4.13.73,5.72.73.8,1.78.62,2.45,0,.3-.24.54-.56.69-.97.29-.81.34-1.69.21-2.54Z"/>
          <path class="cls-5" d="M93.24,52.71c-.05-.51-.21-1.03-.47-1.53-.12-.26-.26-.52-.42-.76-.72-1.08-2.6-1.24-3.19.09-.85,1.9-.71,4.13.73,5.72.73.8,1.78.62,2.45,0,.3-.24.54-.56.69-.97.29-.81.34-1.69.21-2.54Z"/>
          <path class="cls-6" d="M79.22,47.41c-.7-1.16-2.74-1.26-3.33.09-.83,1.9-.78,4.06-.83,6.11-.05,1.89-.05,4.81,2.64,4.77,2.52-.04,2.69-2.75,2.69-4.61,0-2.11-.07-4.51-1.17-6.35Z"/>
          <path class="cls-4" d="M69.81,62.14s9.17-2.38,15.62-.42c0,0-1.59,6.79-7.81,6.78,0,0-7.27.37-7.81-6.36Z"/>
        </g>
        <path class="cls-5" d="M53.77,33.8c.02.71.67,24.85,2.97,31.18,0,0,3.8,9.13,20.15,9.4,0,0,24.23,2.9,23.94-34.04l3.55-.1s1.4,25.54-4.8,32.81c-.29,2.38-2.19,4.42-4.53,4.97-.35.08-.73.14-1.03.35-.23.16-.39.38-.55.6-2.63,3.43-7.62,4.82-11.65,3.23-2.14,1.15-4.61,2.2-7.01,2.56-1.59.24-3.21.13-4.79-.14-1.69-.29-3.38-.78-4.85-1.66-1.47-.89-2.72-2.22-3.29-3.84-.81.45-1.98-.24-2.81-.65-.99-.49-1.95-1.03-2.89-1.6-1.22-.75-2.45-1.63-3.1-2.91-.48-.95-.6-2.03-.68-3.09-.07-.83-.11-1.72.28-2.46-1.84-2.16-1.8-5.35-1.64-8.19.35-6.43-.82-12.85-.73-19.29,0-.28-.13-6.27.05-6.49.21-.25.57-.31.9-.34.83-.09,1.67-.2,2.51-.29Z"/>
        <path class="cls-5" d="M76.55,32.48c4.39-1.36,8.76-2.9,12.73-5.22,3.97-2.32,7.54-5.48,9.76-9.51,1.38-2.52,2.21-5.33,2.41-8.2.13-1.86-.01-3.77-.7-5.51-.69-1.74-1.96-3.29-3.67-4.05-.35,1.35-1.68,2.25-3.05,2.52-1.36.27-2.77.02-4.14-.22-6.53-1.14-13.28-2.09-19.75-.6-4.01.92-7.76,2.75-11.26,4.91-4.14,2.56-8.03,5.65-10.85,9.62s-4.48,8.89-3.9,13.72c.26,2.12,1.05,4.58,2.66,6.08,1.25,1.16,2.92.99,4.52.99,5.54-.01,11.05-.85,16.43-2.12,2.96-.7,5.88-1.53,8.79-2.43Z"/>
        <path class="cls-5" d="M105.34,9.41c2.7,2.52,4.45,5.92,5.41,9.49.73,2.72,1.24,5.9,3.63,7.39-1.27,1.15-2.57,2.34-3.29,3.89-.54,1.17-.72,2.46-.96,3.72-1.22,6.32-4.34,12.26-8.86,16.84.03-5.26-.6-10.53-1.88-15.63-.42-1.67-.91-3.34-1.64-4.9-1.06-2.28-2.6-4.3-4.09-6.34-1.49-2.03-2.94-4.13-3.8-6.5-.86-2.37-1.06-5.07-.05-7.37,2.9-6.59,11.37-4.46,15.52-.59Z"/>
        <path class="cls-4" d="M98.35,49.85c-1.99-3.69-6.55-4.99-9.85-2.94-1.64.71-3.03,1.97-3.88,3.63-4.11-1.02-10.45-1.44-14.45.52-.07-.15-.13-.31-.21-.45-1.99-3.69-6.55-4.99-9.85-2.94-2.46,1.06-4.37,3.33-4.72,6.39-.58,5.1,4.15,9.64,9.23,8.65,4.82-.94,7.26-5.9,6.05-10.32,1.96.07,3.95-.36,5.91-.49,2.51-.16,4.99.02,7.5.01-.13.44-.23.89-.29,1.38-.58,5.1,4.15,9.64,9.23,8.65,5.48-1.06,7.9-7.34,5.33-12.1ZM64.31,61.39c-4.44.84-8.31-3.4-7.43-7.75.71-3.53,3.64-5.44,6.85-5.62,2.04.16,3.99,1.31,5.07,3.31,2.16,3.99.06,9.2-4.49,10.06ZM92.71,60.63c-4.44.84-8.31-3.4-7.43-7.75.71-3.53,3.64-5.44,6.85-5.62,2.04.16,3.99,1.31,5.07,3.31,2.16,3.99.06,9.2-4.49,10.06Z"/>
      </g>
      <g>
        <g>
          <path class="cls-4" d="M56.06,92l2.56,225.91c-21.66-.75-37.85-2.64-37.85-2.64,1.45-21.26,5.11-107.12,5.11-107.12-34.02-2.59-24.72-25.01-24.72-25.01,6.7-38.48,19.14-66.19,24.79-77.39,1.83-3.62,4.94-6.44,8.75-7.85,7.31-2.71,14.76-4.59,21.35-5.9Z"/>
          <path class="cls-4" d="M126.86,189.25c.12,17.06,7.07,123.52,7.07,123.52-9.71,2.35-20.69,3.78-31.88,4.57l-3.85-225.19c8.14,2.05,15.51,4.78,20.72,6.92,4.84,2,8.42,6.19,9.61,11.29l12.42,49.53c5.33,30.74-14.1,29.36-14.1,29.36Z"/>
          <g>
            <g>
              <rect class="cls-3" x="78.64" y="128.33" width="3.55" height="35.51" transform="translate(89.55 -20.42) rotate(31.97)"/>
              <path class="cls-1" d="M97.96,150.13c-5.85-1.92-11.51-4.45-17.45-6.06-.38-.1-.78-.2-1.16-.11-.32.08-.59.28-.85.49-2.55,1.99-4.99,4.12-7.3,6.38-1.96,1.91-3.9,4.05-4.52,6.72.74.48,1.72.09,2.51-.3,2.48-1.24,4.97-2.49,7.45-3.73-1.4,1.53-2.61,3.22-3.62,5.03-.38.68-.72,1.54-.31,2.2,1.23.06,2.39-.49,3.46-1.09,1.59-.88,3.11-1.88,4.54-3-1.26,1.4-2.34,2.97-3.21,4.65-.33.63-.52,1.58.12,1.89.44.21.94-.09,1.33-.38,1.86-1.37,3.72-2.74,5.58-4.1-.7,1.21-1.39,2.42-2.09,3.63-.32.55-.65,1.14-.63,1.78.02.64.53,1.31,1.16,1.24.34-.04.63-.27.9-.49,1.57-1.32,3.14-2.64,4.71-3.97,1.44,2.65,4.97,3.92,7.76,2.81.28-.11.55-.24.84-.28.45-.06.89.1,1.32.25,3.12,1.12,6.33,1.97,9.59,2.56.09-2.25.18-4.5.26-6.76.06-1.51.87-5.01-.02-6.29-.67-.97-8.31-2.35-10.37-3.03Z"/>
            </g>
            <path class="cls-4" d="M102.31,142.24s-1.42,29.12-5.68,41.9c0,0,12.78,4.97,32.67,1.42,0,0,19.17-30.54-26.99-43.32Z"/>
          </g>
          <polygon class="cls-2" points="43.3 140.54 22.25 194.53 90.34 218.9 114.22 165.01 43.3 140.54"/>
          <g>
            <path class="cls-1" d="M74.42,169.93c.63-.44,1.53-.87,2.09-.35.5.46.28,1.29.02,1.92-1.13,2.63-2.55,5.13-4.22,7.45,4.18-3.41,8.36-6.82,12.54-10.24,0,0,.01,0,.02-.01.72-.59,1.78.17,1.48,1.05-1.05,3.09-2.83,5.93-5.16,8.22,2.77-2.48,5.85-4.62,9.13-6.36.71-.38,1.53.26,1.36,1.05-.18.84-.76,1.71-1.32,2.4-1.71,2.08-3.42,4.15-5.13,6.23,2.27-2.25,5.12-3.9,8.2-4.77.81-.23,1.5.64,1.09,1.38-.26.46-.63.9-1,1.27-2.04,2.05-4.25,3.94-6.58,5.66.98-.52,3.59-1.51,5.53-1.96.91-.21,1.57.88.94,1.57-1.42,1.55-4.15,3.15-5.34,3.83-9.06,5.25-19.39,8.32-29.85,8.86-1.44-2.86-2.31-6.01-2.58-9.2-.14-1.66-.12-3.33.07-4.99.23-2.08.34-2.68,2.42-3.2,6.13-1.52,11.14-6.18,16.3-9.8Z"/>
            <path class="cls-4" d="M57.8,173.25s8.28,21.54,7.57,29.35c0,0-11.36,5.68-37.64,5.68,0,0-27.7-7.81-10.65-29.83l40.71-5.21Z"/>
          </g>
        </g>
        <path class="cls-9" d="M123.56,154.46c-2.34-.58-4.72-1.21-7.12-1.78-.76-6.29-.37-12.89-.53-19.22-.15-6,.13-12.45-1.08-18.33-.09-.45-.87-.48-.94,0-1.69,12.17,1.15,24.76.09,36.99-3.23-.72-6.49-1.3-9.73-1.54-.7-.05-.71.91-.15,1.13,5.96,2.38,12.6,3.57,18.87,4.89,1.39.29,1.98-1.79.59-2.14Z"/>
      </g>
    </g>
  </g>
</svg>