<?xml version="1.0" encoding="UTF-8"?>
<svg id="Camada_2" data-name="Camada 2" xmlns="http://www.w3.org/2000/svg" viewBox="0 0 127.32 398.13">
  <defs>
    <style>
      .cls-1 {
        fill: #f6866e;
      }

      .cls-1, .cls-2, .cls-3, .cls-4, .cls-5, .cls-6, .cls-7, .cls-8, .cls-9, .cls-10 {
        stroke-width: 0px;
      }

      .cls-2 {
        fill: #ccc;
      }

      .cls-3 {
        fill: #44aec3;
      }

      .cls-4 {
        fill: #fff;
      }

      .cls-5 {
        fill: #21354e;
      }

      .cls-6 {
        fill: #f47560;
      }

      .cls-7 {
        fill: #336089;
      }

      .cls-8 {
        fill: #a4d7e8;
      }

      .cls-9 {
        fill: #3e6896;
      }

      .cls-10 {
        fill: #f2f2f2;
      }
    </style>
  </defs>
  <g id="OBJECTS">
    <g>
      <path class="cls-5" d="M124.03,112.36c-1.72-4.62-5.85-8.96-11.2-9.29,3.85-.24,6.88-3.53,7.41-7,.53-3.47-.99-6.97-3.17-9.87-2.18-2.89-5-5.33-7.52-7.98-3.33-3.52-6.17-7.49-7.78-11.89-4.18-11.42.33-23.98-1.49-35.91-.71-4.65-2.5-9.14-5.11-13.19C86.89,4.38,70.74-3.2,55.01,1.31c-9.03,2.59-15.99,8.39-20.84,15.92-2.61,4.05-4.4,8.54-5.11,13.19-1.82,11.92,2.69,24.48-1.49,35.91-1.61,4.41-4.45,8.38-7.78,11.89-2.52,2.65-5.34,5.09-7.52,7.98s-3.7,6.39-3.17,9.87c.53,3.47,3.56,6.76,7.41,7-5.35.33-9.48,4.67-11.2,9.29-1.72,4.64-1.39,10.28,2.37,13.78,2.88,2.68,7.17,3.62,11.24,4.21,15.1,2.17,31.72.78,43.73-7.84.51-.36,1.01-.75,1.31-1.27.33-.58.36-1.27.38-1.92.11-3.24.22-6.47.33-9.71.11,3.24.22,6.47.33,9.71.02.66.05,1.34.38,1.92.3.52.8.91,1.31,1.27,12,8.62,28.62,10.01,43.73,7.84,4.07-.59,8.35-1.52,11.24-4.21,3.76-3.5,4.1-9.15,2.37-13.78Z"/>
      <g>
        <g>
          <path class="cls-9" d="M27.13,388.18c-.65,1.09-1.31,2.21-1.67,3.46-.36,1.25-.41,2.66.14,3.82.95,2.04,3.33,2.69,5.42,2.67,5.39-.04,10.39-2.95,15.07-5.88,1.85-1.16,3.7-2.34,5.53-3.53,1.91-1.24,3.82-2.51,5.52-4.09.88-.82,1.72-1.77,2.09-2.97.31-1.01.25-2.1.18-3.17-.25-3.81-.61-7.62-1.08-11.41-.1-.77-7.77-.81-8.59-.8-2.27.03-5.19-.09-7.31.96-1.79.9-3.2,3.24-4.44,4.82-1.86,2.37-3.63,4.84-5.33,7.36-1.92,2.85-3.74,5.78-5.52,8.75Z"/>
          <path class="cls-5" d="M31.92,237.66l.65,134.93s15.51,4.26,30.38,0c0,0-1.94-93.74,2.59-135.64l-33.61.71Z"/>
          <path class="cls-9" d="M106.75,388.18c.65,1.09,1.31,2.21,1.67,3.46s.41,2.66-.14,3.82c-.95,2.04-3.33,2.69-5.42,2.67-5.39-.04-10.39-2.95-15.07-5.88-1.85-1.16-3.7-2.34-5.53-3.53-1.91-1.24-3.82-2.51-5.52-4.09-.88-.82-1.72-1.77-2.09-2.97-.31-1.01-.25-2.1-.18-3.17.25-3.81.61-7.62,1.08-11.41.1-.77,7.77-.81,8.59-.8,2.27.03,5.19-.09,7.31.96,1.79.9,3.2,3.24,4.44,4.82,1.86,2.37,3.63,4.84,5.33,7.36,1.92,2.85,3.74,5.78,5.52,8.75Z"/>
          <path class="cls-5" d="M101.92,237.66l-.65,134.93s-15.51,4.26-30.38,0c0,0,1.94-93.74-2.59-135.64l33.61.71Z"/>
        </g>
        <path class="cls-4" d="M113.67,198.73l5.68,92.32c-25.57,7.1-103.68,4.97-104.39,1.42-.71-3.55,3.55-173.99,3.55-173.99,1.78-7.53,11.92-15.9,23.04-21.13,6.69-3.15,11.93-5.15,11.93-5.15h19.35c5.29,1.78,10,3.59,14.16,5.35,13.22,5.61,21.01,10.85,24.92,13.9,2.01,1.57,3.36,3.83,3.78,6.35l10.04,45.41c7.1,29.83-12.07,35.51-12.07,35.51Z"/>
        <path class="cls-8" d="M86.99,97.56c-7.11,31.73-23.04,57.85-23.04,57.85-7.17-14.35-18.88-47.84-22.4-58.05,6.69-3.15,11.93-5.15,11.93-5.15h19.35c5.29,1.78,10,3.59,14.16,5.35Z"/>
        <path class="cls-1" d="M42.92,187.06v14.4c-.88,0-1.75.02-2.63.03-.97,0-1.95.02-2.87.34-1,.36-1.84,1.04-2.74,1.6-3.52,2.14-8.31,1.98-11.67-.39-.67,2.13-1.33,4.26-2,6.4-.25.8-.74,1.78-1.68,1.48-.57-.18-.89-.79-.82-1.38l.79-7-2.23,7.44c-.2.66-.84,1.14-1.53,1.04-.82-.14-.98-.97-1.02-1.68-.13-2.34.08-4.69.63-6.96l-2.17,7.15c-.18.6-.8,1.03-1.41.87-.74-.18-.8-1.04-.76-1.72.13-2.59.26-5.18.38-7.77-.82,2.48-1.75,4.93-2.78,7.34-.38.89-1.75.59-1.7-.38,0,0,0-.01,0-.02.11-1.87.23-3.74.35-5.61.09-1.41.19-2.88.9-4.1.51-.87,1.31-1.56,2.08-2.22,1.31-1.12,2.63-2.24,3.95-3.36,1.14-.97,2.31-1.96,3.7-2.5,1.16-.45,2.41-.58,3.64-.7,1.19-.11,15.64-.99,21.58-2.27Z"/>
        <path class="cls-10" d="M112.58,198.94c-5.67-.07-11.51,1.27-17.14,1.92-5.74.67-11.49,1.16-17.26,1.48-11.59.65-23.05.27-34.64-.21-1.29-.05-1.27,1.9,0,2,11.69.91,23.64.63,35.33-.09,5.77-.35,11.52-.87,17.26-1.57,5.44-.67,11.37-1.13,16.51-3.07.24-.09.22-.45-.06-.46Z"/>
        <path class="cls-10" d="M103.88,167.18c-.13-5.49-.36-10.98-.71-16.46-.63-9.94-.99-20.48-3.39-30.19-.14-.55-1.01-.44-1,.14.28,9.55,1.96,19.13,2.59,28.68.32,4.8.55,9.6.69,14.4.07,2.29.12,4.58.15,6.86.02,1.35.06,3.65-1.12,4.65-.8.68-3.07,1.05-4.09,1.32-9.15,2.42-18.62,3.24-28.01,4.23-4.83.51-9.67.95-14.5,1.53-3.87.47-7.95.79-11.53,2.43-.76.35-.1,1.46.66,1.12,5.06-2.24,11.62-1.86,17.09-2.45,5.23-.57,10.46-1.11,15.68-1.7,4.68-.53,9.35-1.11,13.98-1.96,3.55-.65,9.53-1,12.33-3.56,2.25-2.06,1.24-6.36,1.18-9.03Z"/>
        <g>
          <g>
            <polygon class="cls-4" points="31.65 89.65 30.98 89.42 36.61 72.59 37.51 72.14 31.65 89.65"/>
            <path class="cls-2" d="M32.44,88.41l-1.35-.45c-.93-.31-1.43-1.32-1.12-2.25h0c.31-.93,1.32-1.43,2.25-1.12l1.35.45c.93.31,1.43,1.32,1.12,2.25h0c-.31.93-1.32,1.43-2.25,1.12Z"/>
            <path class="cls-10" d="M23.97,85.31h6.35c.79,0,1.44.64,1.44,1.44v30.5c0,.79-.64,1.44-1.44,1.44h-6.35c-.79,0-1.44-.64-1.44-1.44v-30.5c0-.79.64-1.44,1.44-1.44Z" transform="translate(33.73 -3.35) rotate(18.48)"/>
            <rect class="cls-8" x="15.6" y="98.8" width="23.11" height="6.39" transform="translate(-78.19 95.41) rotate(-71.52)"/>
            <path class="cls-3" d="M27.16,112.04l-.64,1.93-6.06-2.03,7.33-21.92,1.79.6c-.21.86-.39,1.72-.59,2.57-.65,2.74-1.3,5.47-1.95,8.21-.46,1.95-.93,3.92-.94,5.93-.02,1.62.29,3.29,1.07,4.7Z"/>
          </g>
          <g>
            <g>
              <path class="cls-1" d="M9.47,120.44c-.06-1.2-.12-2.41.18-3.58.5-2.01,1.98-3.61,3.4-5.12,2.25-2.39,4.88-4.95,8.15-4.97,1.54-.01,3.02.56,4.41,1.22,2.22,1.05,4.34,2.33,6.29,3.83.42.32.89.77.8,1.3-.12.72-1.08.86-1.8.82-2.46-.14-4.92-.41-7.35-.82,2.47.34,4.83,1.37,6.77,2.93.62.5.41,1.52-.37,1.68-2.3.48-4.73.35-6.96-.39l5.01,1.56c.47.15.97.35,1.42.61.99.58.65,2.11-.49,2.18-2.07.14-4.93-.05-6.94-.57,1.77.57,4.29,1.27,5.96,2.09.77.38,1.62,1.36.98,1.92-.21.18-.51.22-.79.24-1.92.12-3.87-.18-5.67-.88,1.07,1.64,1.13,5.45.15,7.14-.32.55-.74,1.06-.82,1.69-.06.49.1.97.26,1.44,1.13,3.31,2.26,5.07,3.39,8.38-.12-.35-13.73,5.97-14.87-.25-1.32-7.14-.75-15.19-1.1-22.46Z"/>
              <path class="cls-4" d="M8.32,134.21h18.46s7.64,40.52,1.27,56.4c-2.08,5.2-8.56,8.52-14.85,8.2-8.6-.44-13.36-5.97-13.19-12.91.39-16.22,3.44-35.98,8.31-51.7Z"/>
            </g>
            <path class="cls-10" d="M30.38,176.36c-.11-4.95-.25-9.9-.44-14.84-.33-9.12-.04-18.73-1.58-27.73-.14-.8-1.31-.55-1.36.18-.5,8.84.66,17.99.97,26.84.15,4.24.27,8.48.39,12.72.13,4.7.63,9.62-.18,14.27-.19,1.11,1.49,1.61,1.72.47.8-3.94.57-7.92.48-11.92Z"/>
          </g>
        </g>
        <g>
          <g>
            <path class="cls-4" d="M66.8,107.35c0,1.76-1.43,3.2-3.2,3.2s-3.2-1.43-3.2-3.2,1.43-3.2,3.2-3.2,3.2,1.43,3.2,3.2Z"/>
            <path class="cls-4" d="M66.8,120.13c0,1.76-1.43,3.2-3.2,3.2s-3.2-1.43-3.2-3.2,1.43-3.2,3.2-3.2,3.2,1.43,3.2,3.2Z"/>
          </g>
          <g>
            <g>
              <polygon class="cls-1" points="73.92 100.21 53.34 100.21 54.24 88.42 55.34 69.49 72.92 66.89 73.92 83.23 73.92 100.21"/>
              <path class="cls-6" d="M73.73,83.23c-4.45,2.37-9.31,3.97-14.29,4.71-1.21.2-3.05.46-4.94.48l1.11-18.93,18.3-2.6-.18,16.33Z"/>
            </g>
            <g>
              <path class="cls-6" d="M88.88,49.21c1.15-.81,2.5-1.42,3.9-1.36,1.5.06,2.92.9,3.84,2.09.92,1.19,1.36,2.7,1.42,4.21.16,4.16-2.68,8.1-6.43,9.92-1.39.67-2.94,1.1-4.47.9s-3.01-1.12-3.61-2.54c-.45-1.07-.37-2.28-.23-3.43.48-3.8,2.38-7.53,5.57-9.78Z"/>
              <path class="cls-6" d="M40.67,47.18c-1.07-.9-2.37-1.62-3.77-1.69-1.5-.07-2.99.65-4,1.76-1.01,1.11-1.58,2.58-1.77,4.07-.51,4.14,1.98,8.3,5.57,10.42,1.32.79,2.84,1.34,4.37,1.27,1.54-.07,3.1-.86,3.81-2.22.54-1.03.56-2.24.51-3.4-.16-3.83-1.74-7.71-4.73-10.22Z"/>
              <path class="cls-1" d="M40.09,26.85s.91,36.04.91,36.1c.53,20.76,33.57,23.56,43.94,9.07,1.23-1.72,2.67-4.15,2.92-6.3,0,0,4.13-36.78,4.13-36.78,0,0-6.72-17.51-27.91-16.79,0,0-15.8,2.57-23.99,14.69Z"/>
            </g>
            <path class="cls-7" d="M73.68,88.53l-9.72,10.55-9.72-10.55-4.49,4.97,1.49,14.91c3.11-4.14,10.37-7.29,12.71-8.23,2.34.94,9.6,4.09,12.71,8.23l1.49-14.91-4.49-4.97Z"/>
            <path class="cls-5" d="M69.35,20.09c3.83,8.36,11.66,14.79,20.61,16.91,1.4.33,2.99.53,4.15-.31.8-.58,1.23-1.55,1.54-2.49,1.93-5.93.44-12.65-3.08-17.8s-8.86-8.85-14.6-11.28c-5.87-2.49-12.46-3.04-18.67-1.59-4.12.96-7.9,2.37-11.27,4.92-4.76,3.61-8.86,8.24-11.23,13.72-1.52,3.51-3.79,11.03-1.66,14.72,2.03,3.51,7.37,1.25,10.64.12,9.25-3.2,17.04-9.82,23.57-16.92Z"/>
            <g>
              <path class="cls-5" d="M53.04,43.29c-.37-1.13-1.4-1.86-2.6-1.7-1.23.17-1.94,1.14-2.05,2.33-.03.29-.04.6-.05.9-.25,1.19.02,2.42.53,3.52.43.94,1.82,1.44,2.78,1.13,1.12-.36,1.69-1.25,1.81-2.38.14-1.27-.02-2.59-.42-3.81Z"/>
              <path class="cls-5" d="M82.16,43.29c-.37-1.13-1.4-1.86-2.6-1.7-1.23.17-1.94,1.14-2.05,2.33-.03.29-.04.6-.05.9-.25,1.19.02,2.42.53,3.52.43.94,1.82,1.44,2.78,1.13,1.12-.36,1.69-1.25,1.81-2.38.14-1.27-.02-2.59-.42-3.81Z"/>
              <path class="cls-6" d="M67.89,43.26c-.73-1.45-3.12-1.45-3.85,0-.81,1.63-1.23,4-.79,5.78.66,2.68,4.77,2.68,5.43,0,.44-1.78.02-4.15-.79-5.78Z"/>
              <path class="cls-5" d="M53.59,38.65c-2.38-1.62-6.37-1.24-7.98,1.31-.46.73.46,1.65,1.18,1.18,1.9-1.21,3.67-1.86,5.84-.85,1.1.51,1.98-.95.96-1.64Z"/>
              <path class="cls-5" d="M84.2,39.13c-2.17-1.9-6.17-2.02-8.08.31-.54.66.25,1.69,1.03,1.32,2.03-.96,3.87-1.39,5.9-.13,1.03.64,2.08-.69,1.15-1.51Z"/>
            </g>
            <g>
              <g>
                <path class="cls-9" d="M63.96,80.01s-25.57,1.66-23.88-27.94c.06-1.01.14-2.05.27-3.13,0,0,27.16-5.15,49.89,1.24,0,0,.25,1.29.35,3.34.38,7.79-1.33,26.48-26.62,26.48Z"/>
                <path class="cls-4" d="M90.58,53.53c-16.94-5.56-43.59-2.41-50.51-1.46.06-1.01.14-2.05.27-3.13,0,0,27.16-5.15,49.89,1.24,0,0,.25,1.29.35,3.34Z"/>
                <path class="cls-4" d="M40.46,46.08c-.5-.99-.99-2.25-2.01-2.8-.41-.22-1.06-.05-1.16.47-.2,1.12.36,2.19.82,3.2.49,1.08,1.59,3.24,2.52,4.01.7.58,1.89.24,1.88-.78-.02-1.21-1.51-3.04-2.05-4.1Z"/>
                <path class="cls-4" d="M89.72,47.5c.5-.99.99-2.25,2.01-2.8.41-.22,1.06-.05,1.16.47.2,1.12-.36,2.19-.82,3.2-.49,1.08-1.59,3.24-2.52,4.01-.7.58-1.89.24-1.88-.78.02-1.21,1.51-3.04,2.05-4.1Z"/>
              </g>
              <g>
                <path class="cls-7" d="M83.71,55.26c-12.62,2.93-26.15,1.29-38.91.2-.59-.05-.63.8-.13.98,6.01,2.14,12.98,2.02,19.28,2.24,6.83.24,13.57-.07,20.19-1.86,1.01-.27.58-1.8-.43-1.56Z"/>
                <path class="cls-7" d="M83.71,62.36c-12.62,2.93-26.15,1.29-38.91.2-.59-.05-.63.8-.13.98,6.01,2.14,12.98,2.02,19.28,2.24,6.83.24,13.57-.07,20.19-1.86,1.01-.27.58-1.8-.43-1.56Z"/>
                <path class="cls-7" d="M80.87,69.46c-10.57,2.93-21.91,1.29-32.59.2-.5-.05-.53.8-.11.98,5.03,2.14,10.87,2.02,16.15,2.24,5.72.24,11.37-.07,16.91-1.86.85-.27.49-1.8-.36-1.56Z"/>
              </g>
            </g>
          </g>
        </g>
      </g>
    </g>
  </g>
</svg>