<?xml version="1.0" encoding="UTF-8"?>
<svg id="Camada_2" data-name="Camada 2" xmlns="http://www.w3.org/2000/svg" viewBox="0 0 132.42 399.23">
  <defs>
    <style>
      .cls-1 {
        fill: #f6866e;
      }

      .cls-1, .cls-2, .cls-3, .cls-4, .cls-5, .cls-6, .cls-7, .cls-8 {
        stroke-width: 0px;
      }

      .cls-2 {
        fill: #fff;
      }

      .cls-3 {
        fill: #21354e;
      }

      .cls-4 {
        fill: #f47560;
      }

      .cls-5 {
        fill: #336089;
      }

      .cls-6 {
        fill: #a4d7e8;
      }

      .cls-7 {
        fill: #3e6896;
      }

      .cls-8 {
        fill: #f2f2f2;
      }
    </style>
  </defs>
  <g id="Camada_3" data-name="Camada 3">
    <g>
      <g>
        <path class="cls-3" d="M25.32,384.36c-1.1,1.78-2.23,3.79-1.85,5.87.2,1.09.8,2.05,1.46,2.92,1.83,2.42,4.44,4.45,7.4,4.55,3.1.11,5.87-1.87,8.38-3.76,3.76-2.83,7.52-5.67,11.28-8.5.71-.54,1.44-1.09,1.96-1.84.57-.82.83-1.83,1-2.82.4-2.42.26-4.89.12-7.34-.16-2.71-.31-5.41-.47-8.12-.03-.55-9.2-.37-10.14-.32-2.63.12-5.79-.32-7.49,1.95-4.17,5.56-7.97,11.49-11.64,17.41Z"/>
        <path class="cls-3" d="M110.48,386.21c1.02,1.82,2.06,3.89,1.6,5.94-.24,1.08-.89,2.01-1.58,2.85-1.93,2.33-4.62,4.26-7.59,4.23-3.1-.03-5.78-2.12-8.21-4.12-3.64-2.99-7.27-5.99-10.91-8.98-.69-.57-1.39-1.15-1.88-1.92-.53-.85-.75-1.86-.88-2.86-.3-2.43-.05-4.9.2-7.34l.82-8.09c.06-.55,9.21.03,10.14.12,2.62.24,5.79-.07,7.4,2.28,3.93,5.73,7.47,11.82,10.88,17.9Z"/>
        <path class="cls-7" d="M25.61,198.55s47.77,2.96,73.8,1.51c0,0,5.98,127.56,1.72,169.44,0,0-8.81,2.52-22.02.17,0,0-9.57-126.63-11.87-139.8l-6.31.38s-6.46,125.26-4.99,139.14c0,0-11.89,1.56-22.81.12,0,0-11.55-101.86-7.52-170.95Z"/>
      </g>
      <g>
        <polygon class="cls-1" points="74.77 104.31 53.7 104.31 54.59 91.5 55.7 72.57 73.77 69.97 74.77 86.3 74.77 104.31"/>
        <path class="cls-4" d="M73.59,86.3c-4.45,2.37-9.31,3.97-14.29,4.71-1.22.2-3.05.46-4.94.48l1.11-18.93,18.3-2.6-.18,16.33Z"/>
      </g>
      <g>
        <path class="cls-6" d="M39.77,102.31h45l1.41,99.42s-14.77,4.97-46.41,0v-99.42Z"/>
        <path class="cls-1" d="M125.85,230.27c-.15,2.88-.32,5.78-1.13,8.55-1.55,5.32-5.2,10.18-10.18,12.83-2.3,1.23-3.71,1.12-4.16-1.65-.31-1.9-.1-4.03.32-5.91.68-3.08,1.82-6.07,2.23-9.2-.52.38-.82.99-1.22,1.5s-1.02.96-1.65.8c-1.08-.27-1.02-1.83-.68-2.89,1.38-4.39,3.09-8.76,3.3-13.35.05-1.07.08-2.3.9-2.99.44-.37,1.02-.51,1.58-.62,2.42-.48,8.85-1.9,10.71.47,1.01,1.28.37,3.9.31,5.38-.1,2.36-.21,4.72-.33,7.09Z"/>
        <path class="cls-2" d="M76.38,92.65l24.77,11s9.78,3.97,12.11,16.15c0,0,21.25,69.13,18.98,106,0,0-12.89,2.3-21.35.52,0,0-.92,55.4-2.69,63.86,0,0-16.44,2.15-28.44.22l-3.39-197.74Z"/>
        <path class="cls-2" d="M50.96,92.98l-23.09,8.27s-7.8-.33-13.7,21.46L.78,170.47s-6.01,24.62,15.27,25.52l3.08,95.37s12.74,1.25,30.63-1.55l1.19-196.83Z"/>
        <path class="cls-8" d="M23.28,127.66s22.77-9.3,43.47-14.86c0,0,14.53,41.5,21.61,59.24,0,0-25.07,11.72-42.71,15.41,0,0-14.81-31.3-22.38-59.78Z"/>
        <path class="cls-1" d="M43.15,148.38c.37-.84,1.51-2.3,2.52-2.43,1.62-.2,1.04,3.99.92,4.78-.42,2.7-1.06,5.35-1.71,8,2.55-3.61,5.3-7.07,8.25-10.36,1.13-1.26,2.31-2.51,3.75-3.39.4-.24.87-.47,1.32-.33.94.27.85,1.63.52,2.55-1.5,4.2-3.75,8.08-5.99,11.93,1.74-1.73,3.48-3.45,5.25-5.14,1.78-1.7,3.73-3.43,6.14-3.93.46-.1,1.03-.1,1.29.29.13.2.15.45.13.68-.07,1.24-.78,2.35-1.52,3.35-2.13,2.89-4.66,5.48-7.51,7.66,3-2.13,6.11-4.31,9.71-5.12.82-.18,1.97-.09,2.13.73.11.56-.35,1.05-.77,1.43-2.73,2.47-6.33,5.47-9.2,7.77.93-.74,8.04-3.9,8.32-1.43.1.87-.63,1.58-1.32,2.13-5.85,4.7-12.7,8.12-19.97,9.98-2.58.66-5.31,1.12-7.9.49-2.91-.71-5.5-2.97-6.17-5.89-.5-2.2.26-4.52,1.83-6.11,1.22-1.24,4.3-5.26,5.17-6.85,2.52-4.6,2.76-6.11,4.81-10.81Z"/>
        <path class="cls-2" d="M35.46,155.56s9.01,10.14,12.2,27.26c0,0-15.14,10.33-33.57,8.51,0,0-27.4-14.09,21.37-35.76Z"/>
        <path class="cls-5" d="M54.07,90.85l9.09,11.94,11.28-11.89,5.42,2.76-1.58,21.32s-10.34-7.73-15.17-10.98c0,0-13.13,7.96-16.04,9.66l.84-20.03,6.16-2.78Z"/>
        <path class="cls-8" d="M110.05,175.37c-.46-8.12-1.15-16.25-2.13-24.32-.43-3.57-.91-7.14-1.43-10.71-.61-4.23-1.03-8.94-2.62-12.92-.21-.51-.94-.46-.98.13-.24,3.84.61,7.9,1.07,11.73.5,4.15.97,8.3,1.39,12.46.81,8.1,1.46,16.2,1.91,24.33.91,16.26.81,32.53.35,48.8-.04,1.53,2.25,1.5,2.35,0,1.16-16.47,1.02-33.02.09-49.5Z"/>
        <path class="cls-8" d="M34.85,154.99c-8.23,2.71-17.24,5.18-24.85,9.38-.66.37-.18,1.27.49,1.16,8.48-1.48,16.98-5.15,25.02-8.16,1.46-.55.87-2.88-.65-2.38Z"/>
      </g>
      <g>
        <path class="cls-3" d="M102.07,37.13c-.86-8.08-4.34-15.88-9.8-21.97-5.47-6.1-12.9-10.47-20.95-12.33l.03-.03c1.3-1.14.03-3.24-1.63-2.72-1.74.54-3.36,1.51-4.49,2.85-.02.02-.03.04-.05.06-.02-.02-.03-.04-.05-.06-1.13-1.33-2.75-2.31-4.49-2.85-1.66-.52-2.94,1.59-1.63,2.72l.03.03c-8.05,1.86-15.48,6.23-20.95,12.33-5.47,6.1-8.94,13.89-9.8,21.97-.12,1.17-.17,2.44.46,3.44.64,1,2.22,1.48,3.06.63-.26,2.69.26,5.41,1.03,8,1.93,6.49,5.48,12.43,10.27,17.29,3,3.05,6.48,5.83,10.53,7.41,3.39,1.32,7.21,1.75,10.71.76.29-.08.59-.19.85-.36.25.16.55.28.85.36,3.5.99,7.32.56,10.71-.76,4.05-1.57,7.53-4.35,10.53-7.41,4.79-4.86,8.34-10.8,10.27-17.29.77-2.59,1.29-5.31,1.03-8,.84.84,2.42.36,3.06-.63.64-1,.59-2.27.46-3.44Z"/>
        <g>
          <path class="cls-4" d="M89.24,52.29c1.15-.81,2.5-1.42,3.9-1.36,1.5.06,2.92.9,3.84,2.09.92,1.19,1.36,2.71,1.42,4.21.16,4.16-2.68,8.1-6.43,9.92-1.39.67-2.94,1.1-4.47.9-1.53-.2-3.01-1.12-3.61-2.54-.45-1.07-.37-2.28-.23-3.43.48-3.8,2.38-7.53,5.57-9.78Z"/>
          <path class="cls-4" d="M41.03,50.25c-1.07-.9-2.37-1.62-3.77-1.69-1.5-.07-2.99.65-4,1.76s-1.58,2.58-1.77,4.07c-.51,4.14,1.98,8.3,5.57,10.42,1.32.79,2.84,1.34,4.37,1.27,1.54-.07,3.1-.86,3.81-2.22.54-1.03.56-2.24.51-3.4-.16-3.83-1.74-7.71-4.73-10.22Z"/>
          <path class="cls-1" d="M40.45,29.93s.91,36.04.91,36.1c.53,20.76,33.57,23.56,43.94,9.07,1.23-1.72,2.67-4.15,2.92-6.3,0,0,4.13-36.78,4.13-36.78,0,0-6.72-17.51-27.91-16.79,0,0-15.8,2.57-23.99,14.69Z"/>
        </g>
        <path class="cls-3" d="M44.52,40.56c5.85-1.73,11.27-5.17,15.54-9.89-.3,1.43.72,2.87,1.96,3.39,1.24.52,2.63.33,3.93.05,5.84-1.26,11.37-4.25,15.85-8.58.96,6.52,4.18,12.6,8.85,16.73.66.58,1.42,1.15,2.26,1.05,1.58-.19,2.1-2.43,2.09-4.18-.06-10.36-5.6-20.7-14.19-24.91-3.55-1.74-7.46-2.43-11.35-2.56-6.34-.2-12.78,1.11-18.38,4.38-5.58,3.25-10.36,9.04-14.2,14.48-4.53,6.4,1.66,11.8,7.64,10.04Z"/>
        <g>
          <path class="cls-3" d="M53.22,49.81c-.36-.93-1.16-1.76-2.24-1.71-.97.04-2.04.68-2.24,1.71-.23,1.17-.31,2.33-.14,3.48-.1.67.03,1.32.41,2.01.45.82,1.44,1.24,2.34,1.12.98-.13,1.61-.79,1.96-1.69.59-1.53.5-3.41-.09-4.93Z"/>
          <path class="cls-3" d="M54.35,43.54c-1.57-.81-3.61-.63-5.33-.43-1.3.16-3.16.47-3.59,1.9-.06.21,0,.5.17.65,1,.87,2.47.45,3.69.36,1.58-.12,3.18.26,4.73,0,1.15-.19,1.31-1.97.32-2.48Z"/>
        </g>
        <g>
          <path class="cls-3" d="M83.05,49.81c-.36-.93-1.16-1.76-2.24-1.71-.97.04-2.04.68-2.24,1.71-.23,1.17-.31,2.33-.14,3.48-.1.67.03,1.32.41,2.01.45.82,1.44,1.24,2.34,1.12.98-.13,1.61-.79,1.96-1.69.59-1.53.5-3.41-.09-4.93Z"/>
          <path class="cls-3" d="M84.18,43.54c-1.57-.81-3.61-.63-5.33-.43-1.3.16-3.16.47-3.59,1.9-.06.21,0,.5.17.65,1,.87,2.47.45,3.69.36,1.58-.12,3.18.26,4.73,0,1.15-.19,1.31-1.97.32-2.48Z"/>
        </g>
        <path class="cls-4" d="M67.74,50.82c-.05-1.93.07-4.35-1.12-5.97-.46-.62-1.53-1.03-2.13-.27-1.25,1.57-1.31,3.48-1.47,5.43-.17,2.06-.62,4.72.2,6.65.61,1.46,2.99,2.35,3.85.5.92-1.96.73-4.21.68-6.35Z"/>
        <path class="cls-2" d="M90.15,45.73c-3.28-8.06-12.73-7.72-18.22-2.51-.01,0-.02.02-.03.03-.32.31-.64.63-.93.97-.07.08-.09.16-.1.24-.53.72-.94,1.53-1.26,2.39-1.61-.24-3.29-.12-4.91-.09-1.28.03-2.46.02-3.62.46-.13-.51-.29-1-.49-1.49-3.28-8.06-12.73-7.72-18.22-2.51,0,0-.02.02-.03.03-.32.31-.64.63-.93.97-.07.08-.09.16-.1.24-.88,1.21-1.49,2.61-1.75,4.18-1.34,8.16,4.61,15.25,12.97,13.77,6.31-1.12,9.67-7.72,8.83-13.72.23-.03.46-.09.73-.11.74-.06,1.51,0,2.25,0,1.56,0,3.2-.08,4.77.07,0,0,0,0,0,0-1.34,8.16,4.61,15.25,12.97,13.77,7.38-1.31,10.72-10.12,8.05-16.68ZM51.42,61.06c-6.62.6-10.52-4.76-10.23-11.02.16-3.3,1.85-6.1,4.79-7.65,3.25-1.71,6.45-1.83,9.56-.52,1.52.87,2.8,2.33,3.67,4.54,2.38,6.03-.82,14.03-7.8,14.66ZM80.98,61.06c-6.62.6-10.52-4.76-10.23-11.02.16-3.3,1.85-6.1,4.79-7.65,3.25-1.71,6.45-1.83,9.56-.52,1.52.87,2.8,2.33,3.67,4.54,2.38,6.03-.82,14.03-7.8,14.66Z"/>
        <path class="cls-2" d="M57.92,62.31h14.91s-.71,7.1-7.81,7.1c0,0-6.39,0-7.1-7.1Z"/>
      </g>
    </g>
  </g>
</svg>